<svg xmlns="http://www.w3.org/2000/svg" version="1.1" xmlns:xlink="http://www.w3.org/1999/xlink" xmlns:svgjs="http://svgjs.com/svgjs" width="512" height="512"><svg id="SvgjsSvg1000" enable-background="new 0 0 512 512" height="512" viewBox="0 0 512 512" width="512" xmlns="http://www.w3.org/2000/svg"><g><g><path d="m10 166v336h492v-336c-39.425 0-477.117 0-492 0z" fill="#ffda8f"></path><path d="m70 226h372v216h-372z" fill="#eefaff"></path><circle cx="256" cy="40" fill="#918787" r="30"></circle></g><g><path d="m501.995 156h-56.92l-151.345-102.776c1.481-4.221 2.27-8.676 2.27-13.224 0-22.056-17.944-40-40-40s-40 17.944-40 40c0 4.548.789 9.003 2.27 13.224l-151.345 102.776h-56.92c-5.468-.004-9.979 4.433-10.003 9.956 0 .015-.002.029-.002.044v336c0 .015.002.029.002.044.024 5.55 4.558 9.956 9.998 9.956h201c5.523 0 10-4.477 10-10s-4.477-10-10-10h-176.857l40-40h363.715l40 40h-176.858c-5.523 0-10 4.477-10 10s4.477 10 10 10h201c5.368 0 9.974-4.354 9.998-9.956 0-.015.002-.029.002-.044v-336c0-.015-.002-.029-.002-.044-.023-5.398-4.41-9.96-10.003-9.956zm-481.995 34.143 40 40v207.715l-40 40zm54.143 25.857-40-40h443.715l-40 40zm377.857 14.143 40-40v287.715l-40-40zm-196-210.143c11.028 0 20 8.972 20 20 0 10.995-8.912 20-20 20-11.078 0-20-8.999-20-20 0-11.028 8.972-20 20-20zm-26.616 49.853c7.24 6.465 16.663 10.147 26.616 10.147 9.954 0 19.377-3.683 26.617-10.147l126.857 86.147h-306.948zm202.616 362.147h-352v-196h352z"></path><circle cx="256" cy="502" r="10"></circle></g></g></svg><style>@media (prefers-color-scheme: light) { :root { filter: none; } }
</style></svg>